<?xml version="1.0" encoding="utf-8"?>
<!-- Generator: Adobe Illustrator 28.1.0, SVG Export Plug-In . SVG Version: 6.00 Build 0)  -->
<svg version="1.0" id="Layer_1" xmlns="http://www.w3.org/2000/svg" xmlns:xlink="http://www.w3.org/1999/xlink" x="0px" y="0px"
	 viewBox="0 0 60.4 14.6" enable-background="new 0 0 60.4 14.6" xml:space="preserve">
<g>
	<path fill="#CCCCCC" d="M7.1,0H5.3L0,14.4h1.8l1.4-4.1h5.8l1.4,4.1h1.8L7.1,0z M3.8,8.8l2.3-6.5h0.1l2.3,6.5H3.8z"/>
	<path fill="#CCCCCC" d="M23.3,8.8c0-1-0.1-1.8-0.4-2.5s-0.6-1.2-1.1-1.7c-0.5-0.4-1-0.7-1.5-0.9c-0.5-0.2-1.1-0.3-1.7-0.3
		c-1,0-1.8,0.2-2.5,0.7c-0.7,0.5-1.3,1.1-1.7,2C14.1,7,13.9,8,13.9,9.1c0,1.1,0.2,2.1,0.6,2.9c0.4,0.8,1,1.5,1.7,1.9
		c0.8,0.5,1.6,0.7,2.7,0.7c0.7,0,1.4-0.1,2-0.3c0.6-0.2,1.1-0.5,1.5-1c0.4-0.4,0.7-0.9,0.8-1.4l-1.6-0.5c-0.1,0.4-0.3,0.7-0.6,0.9
		c-0.3,0.2-0.6,0.4-0.9,0.6c-0.3,0.1-0.8,0.2-1.2,0.2c-0.7,0-1.3-0.1-1.8-0.4c-0.5-0.3-0.9-0.7-1.2-1.3c-0.3-0.5-0.4-1.1-0.4-1.8
		h7.8V8.8z M15.5,8.1c0-0.5,0.2-1,0.4-1.4c0.3-0.5,0.6-0.9,1.1-1.3c0.5-0.3,1-0.5,1.7-0.5c0.6,0,1.1,0.1,1.6,0.4
		c0.4,0.3,0.8,0.7,1,1.1c0.2,0.5,0.4,1,0.4,1.6H15.5z"/>
	<path fill="#CCCCCC" d="M25.9,14.4V3.6h1.6v1.6h0.1c0.2-0.5,0.6-1,1.1-1.3c0.5-0.3,1.1-0.5,1.7-0.5c0.1,0,0.3,0,0.5,0
		c0.2,0,0.3,0,0.4,0v1.7c-0.1,0-0.2,0-0.4-0.1s-0.4,0-0.6,0c-0.5,0-1,0.1-1.4,0.3c-0.4,0.2-0.7,0.5-1,0.9c-0.2,0.4-0.4,0.8-0.4,1.3
		v6.8H25.9z"/>
	<path fill="#CCCCCC" d="M36.4,14.6c-0.7,0-1.3-0.1-1.9-0.4c-0.6-0.3-1-0.6-1.3-1.1s-0.5-1.1-0.5-1.8c0-0.6,0.1-1.1,0.4-1.5
		s0.6-0.7,1-0.9c0.4-0.2,0.9-0.4,1.3-0.5c0.5-0.1,1-0.2,1.5-0.3c0.7-0.1,1.2-0.1,1.6-0.2s0.7-0.1,0.9-0.2c0.2-0.1,0.3-0.3,0.3-0.6
		V7.1c0-0.7-0.2-1.2-0.6-1.6c-0.4-0.4-0.9-0.6-1.7-0.6c-0.8,0-1.4,0.2-1.9,0.5c-0.4,0.3-0.8,0.7-0.9,1.1L33,6
		c0.3-0.7,0.7-1.2,1.1-1.5c0.5-0.4,1-0.6,1.5-0.8c0.6-0.1,1.1-0.2,1.7-0.2c0.3,0,0.7,0,1.2,0.1c0.5,0.1,0.9,0.2,1.3,0.5
		c0.4,0.3,0.8,0.6,1.1,1.1c0.3,0.5,0.4,1.2,0.4,2v7.1h-1.7v-1.5h-0.1c-0.1,0.2-0.3,0.5-0.6,0.8c-0.3,0.3-0.6,0.5-1,0.7
		S37,14.6,36.4,14.6z M36.6,13.1c0.7,0,1.2-0.1,1.7-0.4s0.8-0.6,1-1c0.2-0.4,0.3-0.8,0.3-1.3V9c-0.1,0.1-0.2,0.2-0.5,0.2
		c-0.2,0.1-0.5,0.1-0.8,0.2c-0.3,0-0.6,0.1-0.9,0.1c-0.3,0-0.5,0.1-0.7,0.1c-0.4,0.1-0.8,0.1-1.2,0.3c-0.4,0.1-0.7,0.3-0.9,0.6
		c-0.2,0.2-0.3,0.6-0.3,1c0,0.6,0.2,1,0.6,1.3S36,13.1,36.6,13.1z"/>
	<path fill="#CCCCCC" d="M49.2,14.3c-0.1,0-0.3,0.1-0.5,0.1c-0.2,0-0.5,0.1-0.8,0.1c-0.5,0-0.9-0.1-1.4-0.3
		c-0.4-0.2-0.8-0.5-1.1-0.9c-0.3-0.4-0.4-0.9-0.4-1.6V5h-1.6V3.6h1.6V1h1.7v2.6H49V5h-2.3v6.3c0,0.5,0.1,0.8,0.2,1.1
		c0.1,0.2,0.3,0.4,0.5,0.5c0.2,0.1,0.4,0.1,0.7,0.1c0.2,0,0.3,0,0.4,0c0.1,0,0.2,0,0.3-0.1L49.2,14.3z"/>
	<path fill="#CCCCCC" d="M60.4,8.8c0-1-0.1-1.8-0.4-2.5c-0.3-0.7-0.6-1.2-1.1-1.7c-0.4-0.4-0.9-0.7-1.5-0.9
		c-0.5-0.2-1.1-0.3-1.7-0.3c-1,0-1.8,0.2-2.5,0.7c-0.7,0.5-1.3,1.1-1.7,2C51.1,7,50.9,8,50.9,9.1c0,1.1,0.2,2.1,0.6,2.9
		c0.4,0.8,1,1.5,1.7,1.9c0.8,0.5,1.7,0.7,2.7,0.7c0.7,0,1.4-0.1,2-0.3c0.6-0.2,1.1-0.5,1.5-1c0.4-0.4,0.7-0.9,0.8-1.4l-1.6-0.5
		c-0.1,0.4-0.3,0.7-0.6,0.9s-0.6,0.4-0.9,0.6c-0.4,0.1-0.8,0.2-1.2,0.2c-0.7,0-1.2-0.1-1.8-0.4c-0.5-0.3-0.9-0.7-1.2-1.3
		c-0.2-0.5-0.4-1.1-0.4-1.8h7.8V8.8z M52.6,8.1c0-0.5,0.2-1,0.4-1.4c0.3-0.5,0.6-0.9,1.1-1.3c0.5-0.3,1-0.5,1.7-0.5
		c0.6,0,1.1,0.1,1.6,0.4c0.4,0.3,0.8,0.7,1,1.1c0.2,0.5,0.4,1,0.4,1.6H52.6z"/>
</g>
</svg>
